<svg width="30" height="20" viewBox="0 0 30 20" fill="none" xmlns="http://www.w3.org/2000/svg">
<path d="M30 0H0V20H30V0Z" fill="#FFDA44"/>
<path d="M9.99977 0H0V20H9.99977V0Z" fill="#0052B4"/>
<path d="M29.9998 0H20V20H29.9998V0Z" fill="#D80027"/>
<path d="M15 13.4778C15 11.8821 15 9.99963 15 9.99963H17.6087V11.304C17.6087 11.5306 17.1739 12.3609 16.1008 13.0431C15.6943 13.3016 15.2736 13.3847 15 13.4778Z" fill="#D80027"/>
<path d="M14.9993 7.39111H12.3906V9.9998H14.9993V7.39111Z" fill="#D80027"/>
<path d="M16.306 6.5215C16.306 6.04127 15.9167 5.65198 15.4365 5.65198C15.2779 5.65198 15.1297 5.6951 15.0017 5.76922C14.8736 5.69504 14.7255 5.65198 14.5669 5.65198C14.0867 5.65198 13.6973 6.04127 13.6973 6.5215H11.5234V10.8692C11.5234 12.4878 12.8089 13.4238 13.8168 13.909C13.7413 14.0378 13.6973 14.1874 13.6973 14.3475C13.6973 14.8277 14.0867 15.217 14.5669 15.217C14.7255 15.217 14.8736 15.1739 15.0017 15.0998C15.1297 15.1739 15.2779 15.217 15.4365 15.217C15.9167 15.217 16.306 14.8277 16.306 14.3475C16.306 14.1874 16.262 14.0379 16.1865 13.909C17.1945 13.4238 18.4799 12.4877 18.4799 10.8692V6.5215H16.306ZM17.1756 10.8693C17.1756 11.0959 17.1756 11.7854 16.1025 12.4676C15.6961 12.7261 15.2752 12.8936 15.0017 12.9868C14.7281 12.8936 14.3074 12.7261 13.9009 12.4676C12.8278 11.7854 12.8278 11.0959 12.8278 10.8693V7.82596H17.1756V10.8693L17.1756 10.8693Z" fill="#FF9811"/>
</svg>
