<svg width="30" height="20" viewBox="0 0 30 20" fill="none" xmlns="http://www.w3.org/2000/svg">
<path d="M30 0H0V19.9994H30V0Z" fill="#D80027"/>
<path d="M29.9996 0H19.3477V20H29.9996V0Z" fill="#496E2D"/>
<path d="M10.6519 0H0V20H10.6519V0Z" fill="black"/>
<path d="M15.0017 6.52148C13.0807 6.52148 11.5234 8.07871 11.5234 9.99969C11.5234 11.9207 13.0807 13.4779 15.0017 13.4779C16.9227 13.4779 18.4799 11.9207 18.4799 9.99969C18.4799 8.07871 16.9227 6.52148 15.0017 6.52148ZM15.0017 12.1736C13.801 12.1736 12.8278 11.2003 12.8278 9.99969C12.8278 8.79912 13.801 7.82583 15.0017 7.82583C16.2023 7.82583 17.1756 8.79906 17.1756 9.99969C17.1756 11.2003 16.2023 12.1736 15.0017 12.1736Z" fill="#FFDA44"/>
<path d="M15.0023 8.69543C14.5221 8.69543 14.1328 9.08473 14.1328 9.56496V10.8693H15.872V9.56496C15.8719 9.08467 15.4826 8.69543 15.0023 8.69543Z" fill="#FFDA44"/>
</svg>
