<svg width="30" height="20" viewBox="0 0 30 20" fill="none" xmlns="http://www.w3.org/2000/svg">
<path d="M29.9999 0.00012207H0V19.9999H29.9999V0.00012207Z" fill="black"/>
<path d="M5.20021 7.99987C5.06902 8.64611 5 9.3149 5 9.99993C5 10.6849 5.06908 11.3538 5.20021 12L14.9999 12.6086L24.7997 11.9999C24.9309 11.3536 24.9999 10.6848 24.9999 9.99981C24.9999 9.31479 24.9308 8.64599 24.7997 7.99976" fill="#0052B4"/>
<path d="M24.8026 11.9999H5.20312C6.12967 16.5644 10.165 20 15.0029 20C19.8407 20 23.876 16.5644 24.8026 11.9999Z" fill="#F0F0F0"/>
<path d="M19.348 7.99988H10.6523L12.4289 7.16421L11.4828 5.44359L13.4119 5.81262L13.6565 3.86377L15.0002 5.2971L16.3439 3.86377L16.5883 5.81262L18.5175 5.44359L17.5715 7.16427L19.348 7.99988Z" fill="#FFDA44"/>
<path d="M14.9998 19.9998L0 0V19.9998H14.9998Z" fill="#A2001D"/>
<path d="M29.9998 19.9998V0L15 19.9998H29.9998Z" fill="#A2001D"/>
</svg>
