<svg width="30" height="20" viewBox="0 0 30 20" fill="none" xmlns="http://www.w3.org/2000/svg">
<path d="M30 0H0V20H30V0Z" fill="#D80027"/>
<path d="M20.652 7.42196H17.0299C17.2536 7.18783 17.3912 6.8709 17.3912 6.5215C17.3912 5.8011 16.8072 5.21716 16.0868 5.21716C15.633 5.21716 15.2335 5.44902 14.9998 5.80063C14.7662 5.44907 14.3667 5.21716 13.9129 5.21716C13.1925 5.21716 12.6085 5.8011 12.6085 6.5215C12.6085 6.8709 12.7462 7.18783 12.9697 7.42196H9.34766C9.34766 8.38248 10.1843 9.16101 11.1447 9.16101H11.0868C11.0868 10.1215 11.8655 10.9002 12.826 10.9002C12.826 11.2112 12.908 11.5029 13.0511 11.7553L11.6086 13.198L12.7153 14.3047L14.2853 12.7347C14.3468 12.7573 14.4104 12.7753 14.4761 12.7876L13.5274 14.9296L14.9998 16.5214L16.4723 14.9296L15.5236 12.7876C15.5894 12.7753 15.6529 12.7573 15.7145 12.7347L17.2844 14.3047L18.3911 13.198L16.9485 11.7553C17.0916 11.5029 17.1736 11.2112 17.1736 10.9002C18.1341 10.9002 18.9128 10.1215 18.9128 9.16101H18.8549C19.8154 9.16107 20.652 8.38248 20.652 7.42196Z" fill="black"/>
</svg>
