<svg width="30" height="20" viewBox="0 0 30 20" fill="none" xmlns="http://www.w3.org/2000/svg">
<path d="M30 0H0V20H30V0Z" fill="black"/>
<path d="M30 0H0V9.99968H30V0Z" fill="#D80027"/>
<path d="M13.6289 7.95326L14.4767 8.56848L14.1537 9.56486L15.0007 8.94869L15.8486 9.56386L15.5242 8.56784L16.3713 7.95156L15.3238 7.95226L14.9995 6.95618L14.6764 7.95261L13.6289 7.95326Z" fill="#FFDA44"/>
<path d="M17.5 5.66967C16.7119 5.21469 15.8504 4.99995 15 5.00147V6.30546C15.6286 6.30435 16.2653 6.46296 16.8478 6.79923C18.6126 7.8181 19.2195 10.0827 18.2005 11.8475C17.1817 13.6123 14.9169 14.2191 13.1522 13.2002C12.6381 12.9035 12.223 12.5004 11.917 12.0353L10.8281 12.7542C11.2421 13.3835 11.8044 13.9283 12.5 14.3298C14.8877 15.7083 17.9515 14.8874 19.3301 12.4998C20.7086 10.1121 19.8877 7.04813 17.5 5.66967Z" fill="#FFDA44"/>
<path d="M12.1173 9.13013C11.7716 9.76211 12.0037 10.5547 12.6356 10.9005L16.8719 13.2152C16.5838 13.7419 16.7368 14.3828 17.2634 14.6709L18.4078 15.2968C18.9344 15.5849 19.595 15.3915 19.8831 14.8649L20.509 13.7206L12.1173 9.13013Z" fill="#FFDA44"/>
</svg>
