<svg width="30" height="20" viewBox="0 0 30 20" fill="none" xmlns="http://www.w3.org/2000/svg">
<path d="M30 0H0V19.9998H30V0Z" fill="#0052B4"/>
<path d="M13.0903 9.99959C13.1063 9.98178 13.1221 9.96391 13.1379 9.94592C13.1221 9.96397 13.1059 9.98166 13.0898 9.99959H13.0903Z" fill="#F0F0F0"/>
<path d="M11.0852 12.4563L11.7273 13.7988L13.1773 13.4638L12.5279 14.8028L13.6939 15.7275L12.2422 16.0547L12.2462 17.5428L11.0852 16.6118L9.92424 17.5428L9.92828 16.0547L8.47656 15.7275L9.64258 14.8028L8.99318 13.4638L10.4431 13.7988L11.0852 12.4563Z" fill="#F0F0F0"/>
<path d="M22.6817 14.124L22.988 14.7644L23.6796 14.6045L23.3699 15.2432L23.926 15.6843L23.2336 15.8403L23.2354 16.5501L22.6817 16.1061L22.128 16.5501L22.1299 15.8403L21.4375 15.6843L21.9936 15.2432L21.6839 14.6045L22.3755 14.7644L22.6817 14.124Z" fill="#F0F0F0"/>
<path d="M19.8302 7.33093L20.1365 7.97135L20.8281 7.81145L20.5184 8.45017L21.0745 8.89125L20.3821 9.04729L20.3839 9.75714L19.8302 9.313L19.2765 9.75714L19.2784 9.04729L18.5859 8.89125L19.1421 8.45017L18.8324 7.81145L19.524 7.97135L19.8302 7.33093Z" fill="#F0F0F0"/>
<path d="M22.6817 3.4491L22.988 4.08951L23.6796 3.92956L23.3699 4.56833L23.926 5.00936L23.2336 5.16545L23.2354 5.87524L22.6817 5.43111L22.128 5.87524L22.1299 5.16545L21.4375 5.00936L21.9936 4.56833L21.6839 3.92956L22.3755 4.08951L22.6817 3.4491Z" fill="#F0F0F0"/>
<path d="M25.1661 6.36047L25.4724 7.00083L26.1639 6.84099L25.8543 7.47965L26.4104 7.92068L25.7179 8.07677L25.7199 8.78656L25.1661 8.34254L24.6124 8.78656L24.6143 8.07677L23.9219 7.92068L24.478 7.47965L24.1683 6.84099L24.8598 7.00083L25.1661 6.36047Z" fill="#F0F0F0"/>
<path d="M23.3877 9.75708L23.6285 10.4984H24.408L23.7774 10.9566L24.0183 11.6979L23.3877 11.2398L22.7569 11.6979L22.9978 10.9566L22.3672 10.4984H23.1467L23.3877 9.75708Z" fill="#F0F0F0"/>
<path d="M15 0V1.79018L12.3535 3.2608H15V6.73879H11.5369L15 8.66268V9.99959H13.4367L9.13043 7.60749V9.99959H5.86957V7.15357L0.746719 9.99959H0V8.20941L2.6465 6.73879H0V3.2608H3.46307L0 1.33626V0H1.56328L5.86957 2.39216V0H9.13043V2.84602L14.2533 0H15Z" fill="#F0F0F0"/>
<path d="M8.4375 -0.00012207H6.5625V4.06222H0V5.93718H6.5625V9.99964H8.4375V5.93718H15V4.06222H8.4375V-0.00012207Z" fill="#D80027"/>
<path d="M9.13281 6.73889L15.0024 9.99969V9.07762L10.7926 6.73889H9.13281Z" fill="#0052B4"/>
<path d="M9.13281 6.73889L15.0024 9.99969V9.07762L10.7926 6.73889H9.13281Z" fill="#F0F0F0"/>
<path d="M9.13281 6.73889L15.0024 9.99969V9.07762L10.7926 6.73889H9.13281Z" fill="#D80027"/>
<path d="M4.20973 6.73889L0 9.07762V9.99969L5.86957 6.73889H4.20973Z" fill="#D80027"/>
<path d="M5.86957 3.26067L0 -0.00012207V0.92195L4.20979 3.26067H5.86957Z" fill="#0052B4"/>
<path d="M5.86957 3.26067L0 -0.00012207V0.92195L4.20979 3.26067H5.86957Z" fill="#F0F0F0"/>
<path d="M5.86957 3.26067L0 -0.00012207V0.92195L4.20979 3.26067H5.86957Z" fill="#D80027"/>
<path d="M10.7927 3.26067L15.0024 0.92195V-0.00012207L9.13281 3.26067H10.7927Z" fill="#D80027"/>
</svg>
