<svg width="30" height="20" viewBox="0 0 30 20" fill="none" xmlns="http://www.w3.org/2000/svg">
<path d="M30 0.00012207H0V20.0001H30V0.00012207Z" fill="#D80027"/>
<path d="M30 0.00012207H0V6.66677H30V0.00012207Z" fill="#338AF3"/>
<path d="M30 13.3335H0V20.0001H30V13.3335Z" fill="#6DA544"/>
<path d="M15.1875 12.4376C13.8413 12.4376 12.75 11.3463 12.75 10.0001C12.75 8.65384 13.8413 7.56251 15.1875 7.56251C15.6073 7.56251 16.0022 7.66863 16.347 7.85549C15.8061 7.32655 15.0663 7 14.25 7C12.5931 7 11.25 8.34317 11.25 10.0001C11.25 11.657 12.5931 13.0001 14.25 13.0001C15.0663 13.0001 15.8061 12.6736 16.347 12.1446C16.0022 12.3315 15.6073 12.4376 15.1875 12.4376Z" fill="#F0F0F0"/>
<path d="M17.0625 8.31262L17.3854 9.22067L18.2558 8.80687L17.842 9.67724L18.75 10.0002L17.842 10.3231L18.2558 11.1934L17.3854 10.7796L17.0625 11.6877L16.7396 10.7796L15.8692 11.1934L16.283 10.3231L15.375 10.0002L16.283 9.67724L15.8692 8.80687L16.7396 9.22067L17.0625 8.31262Z" fill="#F0F0F0"/>
</svg>
