<svg width="30" height="20" viewBox="0 0 30 20" fill="none" xmlns="http://www.w3.org/2000/svg">
<path d="M30 0.00012207H0V19.9998H30V0.00012207Z" fill="#0052B4"/>
<path d="M5.85156 -0.00012207H25.8515V19.9994" fill="#FFDA44"/>
<path d="M2.14062 0.897218L3.01033 0.264012L3.88145 0.896457L3.58971 -0.00012207H2.43148L2.14062 0.897218Z" fill="#F0F0F0"/>
<path d="M5.175 1.07231L4.84201 0.048584L4.50967 1.07231L3.43359 1.07301L4.30471 1.70557L3.97301 2.72865L4.84272 2.0955L5.71377 2.72801L5.38072 1.70417L6.25107 1.07166L5.175 1.07231Z" fill="#F0F0F0"/>
<path d="M7.00715 2.90372L6.6741 1.87988L6.3417 2.90372L5.26562 2.90437L6.13674 3.53687L5.80504 4.56001L6.6748 3.9268L7.54586 4.55937L7.21275 3.53552L8.08322 2.90308L7.00715 2.90372Z" fill="#F0F0F0"/>
<path d="M8.83906 4.73509L8.50607 3.7113L8.17367 4.73509L7.09766 4.73573L7.96871 5.36829L7.63701 6.39137L8.50672 5.75822L9.37777 6.39073L9.04478 5.36689L9.9152 4.73444L8.83906 4.73509Z" fill="#F0F0F0"/>
<path d="M10.6712 6.56657L10.3382 5.54272L10.0058 6.56657L8.92969 6.56721L9.80074 7.19971L9.4691 8.22285L10.3388 7.58965L11.2099 8.22221L10.8768 7.19842L11.7472 6.56592L10.6712 6.56657Z" fill="#F0F0F0"/>
<path d="M12.4992 8.39787L12.1662 7.37415L11.8339 8.39787L10.7578 8.39857L11.6289 9.03108L11.2972 10.0542L12.1669 9.42107L13.0379 10.0535L12.7049 9.02973L13.5754 8.39722L12.4992 8.39787Z" fill="#F0F0F0"/>
<path d="M14.3352 10.2293L14.0022 9.20557L13.6699 10.2293L12.5938 10.2301L13.4649 10.8626L13.1332 11.8857L14.0029 11.2525L14.874 11.8849L14.5409 10.8612L15.4113 10.2288L14.3352 10.2293Z" fill="#F0F0F0"/>
<path d="M16.1633 12.0608L15.8304 11.037L15.4979 12.0608L14.4219 12.0614L15.293 12.694L14.9613 13.7171L15.831 13.0839L16.7021 13.7164L16.3691 12.6926L17.2394 12.0601L16.1633 12.0608Z" fill="#F0F0F0"/>
<path d="M17.9954 13.8921L17.6624 12.8683L17.3299 13.8921L16.2539 13.8928L17.125 14.5253L16.7933 15.5484L17.663 14.9152L18.5341 15.5478L18.201 14.5239L19.0714 13.8915L17.9954 13.8921Z" fill="#F0F0F0"/>
<path d="M19.8273 15.7236L19.4944 14.6998L19.162 15.7236L18.0859 15.7243L18.957 16.3568L18.6253 17.3799L19.495 16.7467L20.3661 17.3792L20.0331 16.3555L20.9035 15.7229L19.8273 15.7236Z" fill="#F0F0F0"/>
<path d="M21.6594 17.5549L21.3264 16.5311L20.9941 17.5549L19.918 17.5556L20.789 18.1881L20.4574 19.2113L21.3271 18.578L22.1981 19.2106L21.8651 18.1868L22.7355 17.5543L21.6594 17.5549Z" fill="#F0F0F0"/>
<path d="M23.1584 18.3625L22.8261 19.3863L21.75 19.387L22.5934 19.9994H23.723L24.5675 19.3856L23.4914 19.3863L23.1584 18.3625Z" fill="#F0F0F0"/>
</svg>
