<svg width="30" height="20" viewBox="0 0 30 20" fill="none" xmlns="http://www.w3.org/2000/svg">
<path d="M30 0H0V20H30V0Z" fill="#FFDA44"/>
<path d="M9.99977 0H0V20H9.99977V0Z" fill="#0052B4"/>
<path d="M29.9998 0H20V20H29.9998V0Z" fill="#0052B4"/>
<path d="M18.0452 6.08669L17.4619 5.79501C17.4268 5.86538 16.6651 7.41505 16.5407 9.78227H15.6539V6.08663L15.0018 5.21716L14.3496 6.08669V9.78233H13.4629C13.3385 7.41511 12.5768 5.86544 12.5417 5.79507L11.375 6.37836C11.383 6.39436 12.1757 8.00789 12.1757 10.4345V11.0867H14.3496V14.7823H15.654V11.0867H17.8279V10.4345C17.8279 9.17987 18.045 8.14541 18.2271 7.49849C18.4256 6.79303 18.6273 6.381 18.6293 6.37696L18.0452 6.08669Z" fill="black"/>
</svg>
