<svg width="30" height="20" viewBox="0 0 30 20" fill="none" xmlns="http://www.w3.org/2000/svg">
<path d="M30 0H0V20H30V0Z" fill="#FFDA44"/>
<path d="M0 6.66469L30 18.8046V16.07L16.0097 10.539L0 3.9303V6.66469Z" fill="black"/>
<path d="M30 16.0697V13.3354L0 1.19543V3.93024" fill="#F0F0F0"/>
<path d="M17.8268 8.91314C17.8268 10.4737 16.5617 11.7388 15.0012 11.7388C13.4406 11.7388 12.1755 10.4737 12.1755 8.91314C12.1755 8.42657 12.2985 7.9687 12.5151 7.56897C11.902 8.19605 11.5234 9.05359 11.5234 9.99996C11.5234 11.9206 13.0804 13.4777 15.0012 13.4777C16.9219 13.4777 18.4789 11.9206 18.4789 9.99996C18.4789 9.05365 18.1004 8.19605 17.4872 7.56897C17.7038 7.9687 17.8268 8.42657 17.8268 8.91314Z" fill="#D80027"/>
<path d="M15.6518 5.65259H14.3477V12.1732H15.6518V5.65259Z" fill="#D80027"/>
<path d="M17.1753 6.95691H12.8281C12.8281 7.25703 13.0895 7.50032 13.3896 7.50032H13.3715C13.3715 7.80044 13.6149 8.04373 13.9149 8.04373C13.9149 8.34385 14.1583 8.58714 14.4583 8.58714H15.5451C15.8452 8.58714 16.0885 8.34385 16.0885 8.04373C16.3886 8.04373 16.6319 7.80044 16.6319 7.50032H16.6139C16.9138 7.50032 17.1753 7.25709 17.1753 6.95691Z" fill="#D80027"/>
<path d="M18.0431 12.6082H11.957V13.9124H18.0431V12.6082Z" fill="#D80027"/>
<path d="M18.9129 13.0431H16.3047V14.3473H18.9129V13.0431Z" fill="#D80027"/>
<path d="M13.6942 13.0431H11.0859V14.3473H13.6942V13.0431Z" fill="#D80027"/>
</svg>
