<svg width="30" height="20" viewBox="0 0 30 20" fill="none" xmlns="http://www.w3.org/2000/svg">
<path d="M30 0H0V20H30V0Z" fill="#6DA544"/>
<path d="M15 4.47339L22.5 9.99966L15 15.5259L7.5 9.99966L15 4.47339Z" fill="#FFDA44"/>
<path d="M15.0016 13.1576C16.7456 13.1576 18.1595 11.7438 18.1595 9.99974C18.1595 8.25572 16.7456 6.84192 15.0016 6.84192C13.2576 6.84192 11.8438 8.25572 11.8438 9.99974C11.8438 11.7438 13.2576 13.1576 15.0016 13.1576Z" fill="#F0F0F0"/>
<path d="M13.4217 9.80237C12.8725 9.80237 12.3426 9.88592 11.8438 10.0408C11.8658 11.7658 13.2704 13.1576 15.0006 13.1576C16.0705 13.1576 17.0154 12.625 17.5866 11.8111C16.6095 10.5877 15.1057 9.80237 13.4217 9.80237Z" fill="#0052B4"/>
<path d="M18.0989 10.6047C18.137 10.4088 18.1575 10.2067 18.1575 9.99967C18.1575 8.25565 16.7437 6.8418 14.9996 6.8418C13.6983 6.8418 12.5812 7.62917 12.0977 8.75328C12.525 8.6648 12.9675 8.61811 13.4206 8.61811C15.2549 8.61816 16.9141 9.38052 18.0989 10.6047Z" fill="#0052B4"/>
</svg>
