<svg width="30" height="20" viewBox="0 0 30 20" fill="none" xmlns="http://www.w3.org/2000/svg">
<path d="M30 0H0V19.9998H30V0Z" fill="#FF9811"/>
<path d="M30 -0.00012207H0V19.9994" fill="#FFDA44"/>
<path d="M20.6576 5.65187V3.91272H17.3242L17.0695 4.16736C16.1637 5.07315 16.3161 6.12986 16.4273 6.90141C16.5305 7.61718 16.5429 7.89127 16.2767 8.15746C16.0106 8.42359 15.7363 8.41123 15.0207 8.30804C14.2492 8.19684 13.1924 8.04444 12.2866 8.95016C11.3809 9.85594 11.5333 10.9126 11.6446 11.6841C11.7479 12.3997 11.7602 12.6739 11.4941 12.94C11.228 13.206 10.9537 13.1936 10.2382 13.0904C9.95922 13.0502 9.6707 13.0086 9.36285 13.0052L9.34375 14.7441C9.53646 14.7463 9.75678 14.7781 9.98998 14.8116C10.2661 14.8515 10.5786 14.8966 10.9077 14.8966C11.2488 14.8966 11.6076 14.848 11.962 14.6949V16.0863H14.5707V14.782H13.2664V13.9125H14.1359V12.6082H13.4409C13.4738 12.1862 13.4159 11.7822 13.3659 11.4358C13.2626 10.7202 13.2503 10.446 13.5163 10.1799C13.7825 9.91377 14.0567 9.92608 14.7724 10.0293C15.3346 10.1104 16.0482 10.2128 16.7446 9.91219V11.3038H19.3533V9.9995H18.0489V9.12998H18.9184V7.82565H18.2235C18.2564 7.40367 18.1986 6.99967 18.1486 6.65315C18.0765 6.15313 18.0487 5.8686 18.1293 5.65175H20.6576V5.65187Z" fill="#F0F0F0"/>
</svg>
