<svg width="30" height="20" viewBox="0 0 30 20" fill="none" xmlns="http://www.w3.org/2000/svg">
<path d="M29.9986 0.00012207H0.03125V19.9996H29.9986V0.00012207Z" fill="#6DA544"/>
<path d="M0 13.4781H29.9674V0H0" fill="#A2001D"/>
<path d="M5.86318 13.4781V12.6086V0H0V19.9999H29.9674H5.86318V13.4781Z" fill="#F0F0F0"/>
<path d="M4.01549 9.27533L2.92969 7.30333L4.01549 5.3623L5.10117 7.30333L4.01549 9.27533Z" fill="#A2001D"/>
<path d="M1.84355 9.27533L0.757812 7.30333L1.84355 5.3623L2.92935 7.30333L1.84355 9.27533Z" fill="#A2001D"/>
<path d="M4.01549 14.6375L2.92969 12.6656L4.01549 10.7245L5.10117 12.6656L4.01549 14.6375Z" fill="#A2001D"/>
<path d="M1.84355 14.6375L0.757812 12.6656L1.84355 10.7245L2.92935 12.6656L1.84355 14.6375Z" fill="#A2001D"/>
<path d="M4.01549 19.9999L2.92969 18.0279L4.01549 16.0868L5.10117 18.0279L4.01549 19.9999Z" fill="#A2001D"/>
<path d="M1.84355 19.9999L0.757812 18.0279L1.84355 16.0868L2.92935 18.0279L1.84355 19.9999Z" fill="#A2001D"/>
<path d="M4.01549 3.91302L2.92969 1.94102L4.01549 -0.00012207L5.10117 1.94102L4.01549 3.91302Z" fill="#A2001D"/>
<path d="M1.84355 3.91302L0.757812 1.94102L1.84355 -0.00012207L2.92935 1.94102L1.84355 3.91302Z" fill="#A2001D"/>
</svg>
