<svg width="30" height="20" viewBox="0 0 30 20" fill="none" xmlns="http://www.w3.org/2000/svg">
<path d="M30 0H0V20H30V0Z" fill="#0052B4"/>
<path d="M15.0011 14.782C17.6423 14.782 19.7835 12.6409 19.7835 9.99972C19.7835 7.35852 17.6423 5.21741 15.0011 5.21741C12.3599 5.21741 10.2188 7.35852 10.2188 9.99972C10.2188 12.6409 12.3599 14.782 15.0011 14.782Z" fill="#F0F0F0"/>
<path d="M14.999 13.9127C17.1601 13.9127 18.9121 12.1608 18.9121 9.99969C18.9121 7.83859 17.1601 6.08667 14.999 6.08667C12.8379 6.08667 11.0859 7.83859 11.0859 9.99969C11.0859 12.1608 12.8379 13.9127 14.999 13.9127Z" fill="#6DA544"/>
<path d="M14.9993 12.6084C16.4401 12.6084 17.608 11.4404 17.608 9.99967C17.608 8.55894 16.4401 7.39099 14.9993 7.39099C13.5586 7.39099 12.3906 8.55894 12.3906 9.99967C12.3906 11.4404 13.5586 12.6084 14.9993 12.6084Z" fill="#F0F0F0"/>
<path d="M14.999 9.34753L13.5859 9.99968V11.0866L14.999 11.9562L16.412 11.0866V9.99968L14.999 9.34753Z" fill="#0052B4"/>
<path d="M16.4118 8.69543H13.5859V9.99978H16.4118V8.69543Z" fill="#FFDA44"/>
<path d="M30 0H0V1.73904H30V0Z" fill="#A2001D"/>
<path d="M30 18.2607H0V19.9999H30V18.2607Z" fill="#A2001D"/>
</svg>
