<svg width="30" height="20" viewBox="0 0 30 20" fill="none" xmlns="http://www.w3.org/2000/svg">
<path d="M30 0.00012207H0V19.9999H30V0.00012207Z" fill="#D80027"/>
<path d="M12.3913 9.99976H0V14.9999H12.3913V9.99976Z" fill="#6DA544"/>
<path d="M30.0007 9.99976H17.6094V14.9999H30.0007V9.99976Z" fill="#6DA544"/>
<path d="M0 0V0.000175681V4.99982H12.3913V0.000175681H17.6087V4.99982H30V0.000175681V0H0Z" fill="#0052B4"/>
<path d="M30.0007 4.99963H17.6094V9.99975H30.0007V4.99963Z" fill="#F0F0F0"/>
<path d="M12.3913 4.99963H0V9.99975H12.3913V4.99963Z" fill="#F0F0F0"/>
<path d="M17.6087 19.9994H12.3913V14.9998H0V19.9994V19.9996H30V19.9994V14.9998H17.6087V19.9994Z" fill="#FFDA44"/>
<path d="M7.01 1.52161L7.27977 2.35198H8.15293L7.44664 2.86519L7.71641 3.69551L7.01 3.18235L6.30371 3.69551L6.57353 2.86519L5.86719 2.35198H6.74023L7.01 1.52161Z" fill="#FFDA44"/>
</svg>
