<svg width="30" height="20" viewBox="0 0 30 20" fill="none" xmlns="http://www.w3.org/2000/svg">
<path d="M30 0H0V20H30V0Z" fill="#D80027"/>
<path d="M10.4816 6.10754L11.3404 8.7505H14.1194L11.8711 10.384L12.7299 13.027L10.4816 11.3935L8.2333 13.027L9.09205 10.384L6.84375 8.7505H9.62279L10.4816 6.10754Z" fill="#FFDA44"/>
<path d="M15.8948 14.898L15.0517 14.2854L14.2086 14.8979L14.5306 13.9069L13.6875 13.2943H14.7296L15.0517 12.3031L15.3738 13.2943H16.4159L15.5728 13.9068L15.8948 14.898Z" fill="#FFDA44"/>
<path d="M18.0955 11.8708H17.0535L16.7314 12.8618L16.4094 11.8708L15.3672 11.8708L16.2104 11.2582L15.8883 10.2671L16.7314 10.8796L17.5745 10.2671L17.2525 11.2582L18.0955 11.8708Z" fill="#FFDA44"/>
<path d="M18.0955 8.12873L17.2525 8.74133L17.5745 9.73237L16.7314 9.1199L15.8883 9.73249L16.2104 8.74127L15.3672 8.12885L16.4095 8.12873L16.7314 7.13757L17.0535 8.12873H18.0955Z" fill="#FFDA44"/>
<path d="M15.8948 5.1015L15.5728 6.09266L16.4159 6.70513L15.3738 6.70519L15.0516 7.69641L14.7296 6.70513L13.6875 6.70525L14.5306 6.0926L14.2086 5.10144L15.0516 5.71403L15.8948 5.1015Z" fill="#FFDA44"/>
</svg>
