<svg width="30" height="20" viewBox="0 0 30 20" fill="none" xmlns="http://www.w3.org/2000/svg">
<path d="M30 0H0V20H30V0Z" fill="#0052B4"/>
<path d="M30 13.9127H0V15.2171H30V13.9127Z" fill="#D80027"/>
<path d="M30 12.6084H0V13.9127H30V12.6084Z" fill="#F0F0F0"/>
<path d="M30 15.217H0V16.5214H30V15.217Z" fill="#F0F0F0"/>
<path d="M10.57 10.309L10.746 10.8509H11.3158L10.8549 11.1857L11.031 11.7276L10.57 11.3928L10.109 11.7276L10.2851 11.1857L9.82422 10.8509H10.394L10.57 10.309Z" fill="#FFDA44"/>
<path d="M10.57 17.4022L10.746 17.944H11.3158L10.8549 18.2789L11.031 18.8208L10.57 18.4859L10.109 18.8208L10.2851 18.2789L9.82422 17.944H10.394L10.57 17.4022Z" fill="#FFDA44"/>
<path d="M7.26928 15.0033L7.44529 15.5452H8.01512L7.55422 15.8801L7.73023 16.422L7.26928 16.0871L6.80832 16.422L6.98439 15.8801L6.52344 15.5452H7.09326L7.26928 15.0033Z" fill="#FFDA44"/>
<path d="M8.52709 11.0183L8.70311 11.5602H9.27293L8.81203 11.8951L8.98805 12.437L8.52709 12.102L8.06613 12.437L8.24221 11.8951L7.78125 11.5602H8.35107L8.52709 11.0183Z" fill="#FFDA44"/>
<path d="M6.52344 13.2498L7.09314 13.2498L7.26922 12.7079L7.44529 13.2498L8.01512 13.2497L7.55416 13.5846L7.73023 14.1266L7.26922 13.7917L6.80832 14.1264L6.98434 13.5846L6.52344 13.2498Z" fill="#FFDA44"/>
<path d="M8.06619 18.008L8.24227 17.4662L7.78125 17.1312H8.35107L8.52715 16.5894L8.70322 17.1312H9.27299L8.81203 17.4661L8.98805 18.008L8.52709 17.6731L8.06619 18.008Z" fill="#FFDA44"/>
<path d="M13.8708 15.0033L13.6948 15.5452H13.125L13.5858 15.8801L13.4098 16.422L13.8708 16.0871L14.3317 16.422L14.1557 15.8801L14.6166 15.5452H14.0468L13.8708 15.0033Z" fill="#FFDA44"/>
<path d="M12.6091 11.0183L12.4331 11.5602H11.8633L12.3242 11.8951L12.1482 12.437L12.6091 12.102L13.0701 12.437L12.894 11.8951L13.355 11.5602H12.7851L12.6091 11.0183Z" fill="#FFDA44"/>
<path d="M14.6166 13.2498L14.047 13.2498L13.8708 12.7079L13.6948 13.2498L13.125 13.2497L13.586 13.5846L13.4098 14.1266L13.8708 13.7917L14.3317 14.1264L14.1557 13.5846L14.6166 13.2498Z" fill="#FFDA44"/>
<path d="M13.0701 18.008L12.894 17.4662L13.355 17.1312H12.7852L12.6091 16.5894L12.433 17.1312H11.8633L12.3242 17.4661L12.1482 18.008L12.6092 17.6731L13.0701 18.008Z" fill="#FFDA44"/>
</svg>
