<svg width="30" height="20" viewBox="0 0 30 20" fill="none" xmlns="http://www.w3.org/2000/svg">
<path d="M30 0H0V20H30V0Z" fill="#496E2D"/>
<path d="M0 8.125V9.37507V10.625V11.8751H30V10.625V9.37507V8.125H0Z" fill="black"/>
<path d="M30 8.125H0V9.37524H30V8.125Z" fill="#FFDA44"/>
<path d="M30 10.6248H0V11.875H30V10.6248Z" fill="#F0F0F0"/>
<path d="M16.875 0H13.125V20H16.875V0Z" fill="black"/>
<path d="M14.3746 0H13.125V20H14.3746V0Z" fill="#FFDA44"/>
<path d="M16.8746 0H15.625V20H16.8746V0Z" fill="#F0F0F0"/>
<path d="M15.0011 14.7825C17.6423 14.7825 19.7835 12.6413 19.7835 10C19.7835 7.35871 17.6423 5.21753 15.0011 5.21753C12.3599 5.21753 10.2188 7.35871 10.2188 10C10.2188 12.6413 12.3599 14.7825 15.0011 14.7825Z" fill="#D80027"/>
<path d="M16.089 10.5336C15.7333 9.82217 15.2709 9.10104 15.2709 9.10104C15.2709 9.10104 15.2824 8.77273 15.2824 8.57708C15.2824 8.28235 15.0435 8.04346 14.7488 8.04346C14.4696 8.04346 14.2409 8.25797 14.2175 8.53103C13.998 8.54538 13.8242 8.72744 13.8242 8.95063C13.8242 9.11288 13.9162 9.25344 14.0506 9.32376C14.1175 9.16737 14.2484 9.04526 14.4104 8.98959C14.4368 9.01127 14.4652 9.03049 14.4955 9.04684L14.5638 9.07959C14.5638 9.07959 14.3103 9.79404 14.3103 10.178C14.3103 11.257 15.0218 11.5898 15.0218 11.5898V11.6009L14.666 11.9565H15.3775V11.2451L15.7332 11.6009C15.7365 11.5941 16.4072 11.17 16.089 10.5336Z" fill="#496E2D"/>
<path d="M14.9982 6.08679L15.1601 6.58503H15.6839L15.2601 6.893L15.4221 7.39118L14.9982 7.08332L14.5744 7.39118L14.7363 6.893L14.3125 6.58503H14.8363L14.9982 6.08679Z" fill="#496E2D"/>
<path d="M12.6994 6.83423L13.1232 7.14209L13.547 6.83423L13.3851 7.3324L13.8089 7.64032L13.2852 7.64038L13.1232 8.13861L12.9613 7.64038L12.4375 7.64032L12.8613 7.3324L12.6994 6.83423Z" fill="#496E2D"/>
<path d="M11.2773 8.79078H11.8011L11.963 8.2926L12.125 8.79078H12.6487L12.225 9.09869L12.3869 9.59693L11.963 9.28907L11.5392 9.59687L11.7011 9.09869L11.2773 8.79078Z" fill="#496E2D"/>
<path d="M11.2773 11.2092L11.7011 10.9014L11.5392 10.4031L11.963 10.711L12.3868 10.4031L12.225 10.9013L12.6488 11.2092L12.125 11.2093L11.963 11.7074L11.8011 11.2092H11.2773Z" fill="#496E2D"/>
<path d="M12.6995 13.1657L12.8614 12.6676L12.4375 12.3596H12.9614L13.1233 11.8613L13.2852 12.3596H13.809L13.3852 12.6675L13.547 13.1657L13.1232 12.8579L12.6995 13.1657Z" fill="#496E2D"/>
<path d="M14.9982 13.9131L14.8363 13.415H14.3125L14.7363 13.107L14.5744 12.6088L14.9982 12.9166L15.422 12.6088L15.2601 13.107L15.6839 13.4149L15.1601 13.415L14.9982 13.9131Z" fill="#496E2D"/>
<path d="M17.301 13.1657L16.8772 12.8579L16.4534 13.1658L16.6153 12.6675L16.1914 12.3596L16.7152 12.3596L16.8771 11.8613L17.0391 12.3596H17.5629L17.1391 12.6676L17.301 13.1657Z" fill="#496E2D"/>
<path d="M18.7231 11.2092H18.1993L18.0374 11.7073L17.8754 11.2092H17.3516L17.7754 10.9012L17.6135 10.4031L18.0374 10.7109L18.4612 10.4031L18.2993 10.9012L18.7231 11.2092Z" fill="#496E2D"/>
<path d="M18.7231 8.79078L18.2993 9.09869L18.4612 9.59687L18.0374 9.28901L17.6135 9.59693L17.7754 9.09869L17.3516 8.79084L17.8754 8.79078L18.0373 8.2926L18.1993 8.79078H18.7231Z" fill="#496E2D"/>
<path d="M17.301 6.83423L17.1391 7.3324L17.5629 7.64032H17.0391L16.8772 8.13861L16.7152 7.64038H16.1914L16.6153 7.3324L16.4534 6.83429L16.8772 7.14209L17.301 6.83423Z" fill="#496E2D"/>
</svg>
