<svg width="30" height="20" viewBox="0 0 30 20" fill="none" xmlns="http://www.w3.org/2000/svg">
<path d="M30 0H0V19.9994H30V0Z" fill="#496E2D"/>
<path d="M30 0H15V20H30V0Z" fill="#F0F0F0"/>
<path d="M17.1492 8.08167L16.3287 9.21222L15 8.78138L15.8217 9.91106L15.0013 11.0417L16.3297 10.6092L17.1514 11.7389L17.1506 10.342L18.4789 9.90948L17.1501 9.47858L17.1492 8.08167Z" fill="#D80027"/>
<path d="M15.8308 12.8258C14.2701 12.8258 13.0047 11.5605 13.0047 9.99969C13.0047 8.43889 14.27 7.17363 15.8308 7.17363C16.3175 7.17363 16.7754 7.29667 17.1752 7.51329C16.548 6.9 15.6903 6.52148 14.7439 6.52148C12.8229 6.52148 11.2656 8.07871 11.2656 9.99969C11.2656 11.9207 12.8229 13.4779 14.7439 13.4779C15.6903 13.4779 16.548 13.0993 17.1752 12.4861C16.7754 12.7028 16.3175 12.8258 15.8308 12.8258Z" fill="#D80027"/>
</svg>
