<svg width="30" height="20" viewBox="0 0 30 20" fill="none" xmlns="http://www.w3.org/2000/svg">
<path d="M30 0H0V20H30V0Z" fill="#FFDA44"/>
<path d="M30 10H0V15.0003H30V10Z" fill="#0052B4"/>
<path d="M30 15.0004H0V20H30V15.0004Z" fill="#D80027"/>
<path d="M15.0015 13.4781C16.9224 13.4781 18.4796 11.9209 18.4796 9.99999C18.4796 8.07907 16.9224 6.52185 15.0015 6.52185C13.0806 6.52185 11.5234 8.07907 11.5234 9.99999C11.5234 11.9209 13.0806 13.4781 15.0015 13.4781Z" fill="#FFDA44"/>
<path d="M14.9997 12.303C13.7635 12.303 12.7578 11.2973 12.7578 10.0611V8.7159C12.7578 7.47967 13.7635 6.474 14.9997 6.474C16.2359 6.474 17.2415 7.47967 17.2415 8.7159V10.0611C17.2415 11.2973 16.2359 12.303 14.9997 12.303Z" fill="#338AF3"/>
<path d="M18.5879 4.68055H15.8977C15.8977 4.18537 15.4962 3.78381 15.001 3.78381C14.5058 3.78381 14.1043 4.18537 14.1043 4.68055H11.4141C11.4141 5.1758 11.8455 5.57729 12.3407 5.57729H12.3108C12.3108 6.07253 12.7123 6.47403 13.2075 6.47403C13.2075 6.96927 13.609 7.37077 14.1042 7.37077H15.8977C16.3929 7.37077 16.7944 6.96927 16.7944 6.47403C17.2897 6.47403 17.6912 6.07253 17.6912 5.57729H17.6613C18.1566 5.57729 18.5879 5.1758 18.5879 4.68055Z" fill="black"/>
</svg>
