<svg width="30" height="20" viewBox="0 0 30 20" fill="none" xmlns="http://www.w3.org/2000/svg">
<path d="M30 0H0V20H30V0Z" fill="#F0F0F0"/>
<path d="M30 0H0V6.66665H30V0Z" fill="#D80027"/>
<path d="M30 13.3334H0V20H30V13.3334Z" fill="black"/>
<path d="M18.75 8.84511H15.9375C15.9375 8.32737 15.5177 7.90759 15 7.90759C14.4823 7.90759 14.0625 8.32737 14.0625 8.84511H11.25C11.25 9.36286 11.701 9.78263 12.2187 9.78263H12.1875C12.1875 10.3004 12.6073 10.7202 13.125 10.7202C13.125 11.2379 13.5448 11.6577 14.0625 11.6577H15.9375C16.4552 11.6577 16.875 11.2379 16.875 10.7202C17.3927 10.7202 17.8125 10.3004 17.8125 9.78263H17.7813C18.299 9.78263 18.75 9.36292 18.75 8.84511Z" fill="#FF9811"/>
</svg>
