<svg width="30" height="20" viewBox="0 0 30 20" fill="none" xmlns="http://www.w3.org/2000/svg">
<path d="M30 0H0V20H30V0Z" fill="#338AF3"/>
<path d="M30 0H0V10H30V0Z" fill="#6DA544"/>
<path d="M1.37327e-09 20C-0.000234374 20.0016 30 9.99965 30 9.99965L1.37327e-09 0V20Z" fill="#D80027"/>
<path d="M8.25947 6.24951C6.51818 6.24951 5.10156 7.6661 5.10156 9.40749V10.5918C5.10156 12.3331 6.51824 13.7497 8.25947 13.7497C10.0007 13.7497 11.4174 12.3331 11.4174 10.5918V9.40749C11.4174 7.66622 10.0007 6.24951 8.25947 6.24951ZM10.2331 10.5918C10.2331 11.4738 9.65148 12.2225 8.85156 12.4746V11.1839L9.68939 10.3461L8.85209 9.5088L8.85162 9.21073V8.8155H7.66738V9.99977L6.8302 10.837L7.66738 11.6742V12.4748C6.86752 12.2226 6.2858 11.474 6.2858 10.5919V9.40755C6.2858 8.31926 7.17121 7.43383 8.25947 7.43383C9.34773 7.43383 10.2331 8.31926 10.2331 9.40755V10.5918Z" fill="#FFDA44"/>
</svg>
