<svg width="30" height="20" viewBox="0 0 30 20" fill="none" xmlns="http://www.w3.org/2000/svg">
<path d="M30 0H0V20H30V0Z" fill="#FFDA44"/>
<path d="M30 0H0V6.66665H30V0Z" fill="#6DA544"/>
<path d="M30 13.3334H0V20H30V13.3334Z" fill="#D80027"/>
<path d="M15.0011 14.7825C17.6423 14.7825 19.7835 12.6413 19.7835 10C19.7835 7.35871 17.6423 5.21753 15.0011 5.21753C12.3599 5.21753 10.2188 7.35871 10.2188 10C10.2188 12.6413 12.3599 14.7825 15.0011 14.7825Z" fill="#0052B4"/>
<path d="M14.9994 6.29651L15.8628 8.95356H18.661L16.3964 10.5959L17.2664 13.2608L14.9994 11.6108L12.7359 13.2578L13.6025 10.5959L11.3398 8.95356H14.1361L14.9994 6.29651Z" fill="#FFDA44"/>
<path d="M18.4431 10.6613L15.7043 9.7714L17.3969 7.44172L16.6935 6.93054L15.0008 9.26034L13.3082 6.9306L12.6047 7.44167L14.2973 9.77152L11.5586 10.6613L11.8272 11.4884L14.566 10.5985V13.4783H15.4357V10.5985L18.1744 11.4884L18.4431 10.6613Z" fill="#FFDA44"/>
</svg>
