<svg width="30" height="20" viewBox="0 0 30 20" fill="none" xmlns="http://www.w3.org/2000/svg">
<path d="M30 0.000244141H0V20H30V0.000244141Z" fill="#2E52B2"/>
<path d="M15 0.000244141V1.32543L12.3006 3.12474H15V6.87464H12.3006L15 8.67459V9.99978H13.6741L9.375 7.1335V9.99978H5.625V7.1335L1.32586 9.99978H0V8.67459L2.69936 6.87464H0V3.12474H2.69936L0 1.32543V0.000244141H1.32586L5.625 2.86582V0.000244141H9.375V2.86582L13.6741 0.000244141H15Z" fill="#F0F0F0"/>
<path d="M8.4375 0H6.5625V4.06244H0V5.93739H6.5625V9.99982H8.4375V5.93739H15V4.06244H8.4375V0Z" fill="#D80027"/>
<path d="M0 0V0.883747L3.36193 3.12496H4.6875L0 0Z" fill="#D80027"/>
<path d="M15 0V0.883747L11.6381 3.12496H10.3125L15 0Z" fill="#D80027"/>
<path d="M0 0V0.883747L3.36193 3.12496H4.6875L0 0Z" fill="#D80027"/>
<path d="M15 0V0.883747L11.6381 3.12496H10.3125L15 0Z" fill="#D80027"/>
<path d="M0 9.99984V9.11615L3.36193 6.87488H4.6875L0 9.99984Z" fill="#D80027"/>
<path d="M15 9.99984V9.11615L11.6381 6.87488H10.3125L15 9.99984Z" fill="#D80027"/>
<path d="M19.457 7.17377V10.6519C19.457 12.9816 22.5005 13.6953 22.5005 13.6953C22.5005 13.6953 25.544 12.9816 25.544 10.6519V7.17377L22.5005 6.3042L19.457 7.17377Z" fill="#F3F3F3"/>
<path d="M25.5439 7.39124V6.08691H19.457V7.39124H22.0657V9.99994H19.457V10.8694V10.8694H22.0657V13.7794C22.3281 13.8723 22.5005 13.9128 22.5005 13.9128C22.5005 13.9128 22.6729 13.8723 22.9353 13.7794V10.8694H25.544V10.8694V9.99994H22.9352V7.39124H25.5439Z" fill="#D80027"/>
</svg>
