<svg width="30" height="20" viewBox="0 0 30 20" fill="none" xmlns="http://www.w3.org/2000/svg">
<path d="M30 0H0V20H30V0Z" fill="#A2001D"/>
<path d="M15.0007 10L2.60938 17.3912V2.60876L15.0007 10Z" fill="#496E2D"/>
<path d="M15.0007 10L27.392 17.3912H2.60938L15.0007 10Z" fill="#FFDA44"/>
<path d="M27.392 2.60876L15.0007 10L2.60938 2.60876H27.392Z" fill="#FFDA44"/>
<path d="M27.3913 2.60876V17.3912L15 10L27.3913 2.60876Z" fill="#496E2D"/>
<path d="M15.0026 0.608521L15.1969 1.20637H15.8255L15.3169 1.57587L15.5112 2.17377L15.0026 1.80421L14.494 2.17377L14.6883 1.57587L14.1797 1.20637H14.8083L15.0026 0.608521Z" fill="#FFDA44"/>
<path d="M9.96742 0.608521L10.1617 1.20637H10.7903L10.2818 1.57587L10.4761 2.17377L9.96742 1.80421L9.45889 2.17377L9.65312 1.57587L9.14453 1.20637H9.77312L9.96742 0.608521Z" fill="#FFDA44"/>
<path d="M20.0338 0.608521L20.2281 1.20637H20.8567L20.3481 1.57587L20.5424 2.17377L20.0338 1.80421L19.5252 2.17377L19.7195 1.57587L19.2109 1.20637H19.8395L20.0338 0.608521Z" fill="#FFDA44"/>
<path d="M15.0026 17.8263L15.1969 18.4241H15.8255L15.3169 18.7937L15.5112 19.3915L15.0026 19.022L14.494 19.3915L14.6883 18.7937L14.1797 18.4241H14.8083L15.0026 17.8263Z" fill="#FFDA44"/>
<path d="M9.96742 17.8263L10.1617 18.4241H10.7903L10.2818 18.7937L10.4761 19.3915L9.96742 19.022L9.45889 19.3915L9.65312 18.7937L9.14453 18.4241H9.77312L9.96742 17.8263Z" fill="#FFDA44"/>
<path d="M20.0338 17.8263L20.2281 18.4241H20.8567L20.3481 18.7937L20.5424 19.3915L20.0338 19.022L19.5252 19.3915L19.7195 18.7937L19.2109 18.4241H19.8395L20.0338 17.8263Z" fill="#FFDA44"/>
<path d="M14.9993 12.2259C16.2286 12.2259 17.2252 11.2293 17.2252 9.99996C17.2252 8.77062 16.2286 7.77405 14.9993 7.77405C13.77 7.77405 12.7734 8.77062 12.7734 9.99996C12.7734 11.2293 13.77 12.2259 14.9993 12.2259Z" fill="#A2001D"/>
<path d="M15.0006 7.7738L15.4996 9.30958H17.1145L15.8081 10.2589L16.307 11.7948L15.0006 10.8456L13.6941 11.7948L14.1931 10.2589L12.8867 9.30958H14.5016L15.0006 7.7738Z" fill="#FFDA44"/>
<path d="M6.30513 9.83482C6.56195 10.2407 6.44124 10.7777 6.03548 11.0347C5.62972 11.2916 5.09259 11.1708 4.83566 10.765C4.3706 10.0302 4.64025 8.83044 4.64025 8.83044C4.64025 8.83044 5.83995 9.1001 6.30513 9.83482Z" fill="#FFDA44"/>
<path d="M5.80586 11.102C6.04597 11.102 6.24062 10.9073 6.24062 10.6672C6.24062 10.4271 6.04597 10.2324 5.80586 10.2324C5.56574 10.2324 5.37109 10.4271 5.37109 10.6672C5.37109 10.9073 5.56574 11.102 5.80586 11.102Z" fill="#A2001D"/>
</svg>
