<svg width="30" height="20" viewBox="0 0 30 20" fill="none" xmlns="http://www.w3.org/2000/svg">
<path d="M30 0.00012207H0V19.9999H30V0.00012207Z" fill="#F0F0F0"/>
<path d="M16.875 0H13.125V8.1248H0V11.8747H13.125V19.9995H16.875V11.8747H30V8.1248H16.875V0Z" fill="#D80027"/>
<path d="M7.21412 3.41029V2.10596H5.90982V3.41029H4.60547V4.71462H5.90982V6.01895H7.21412V4.71462H8.51848V3.41029H7.21412Z" fill="#D80027"/>
<path d="M24.0891 3.41029V2.10596H22.7848V3.41029H21.4805V4.71462H22.7848V6.01895H24.0891V4.71462H25.3935V3.41029H24.0891Z" fill="#D80027"/>
<path d="M7.21412 15.2849V13.9806H5.90982V15.2849H4.60547V16.5893H5.90982V17.8936H7.21412V16.5893H8.51848V15.2849H7.21412Z" fill="#D80027"/>
<path d="M24.0891 15.2849V13.9806H22.7848V15.2849H21.4805V16.5893H22.7848V17.8936H24.0891V16.5893H25.3935V15.2849H24.0891Z" fill="#D80027"/>
</svg>
