<svg width="30" height="20" viewBox="0 0 30 20" fill="none" xmlns="http://www.w3.org/2000/svg">
<path d="M30 0.000366211H0V19.9997H30V0.000366211Z" fill="#F0F0F0"/>
<path d="M30 0.000366211H0V6.6668H30V0.000366211Z" fill="#6DA544"/>
<path d="M30 13.3333H0V19.9997H30V13.3333Z" fill="#D80027"/>
<path d="M15 10.0004L0 20V0L15 10.0004Z" fill="#0052B4"/>
<path d="M16.3945 7.87366V10.4778C16.3945 12.0724 18.4778 12.5611 18.4778 12.5611C18.4778 12.5611 20.5611 12.0725 20.5611 10.4778V7.87366H16.3945Z" fill="#DEDDE0"/>
<path d="M18.9987 10.0092H17.957V11.5196H18.9987V10.0092Z" fill="#786145"/>
<path d="M19.5183 9.4362C19.5183 8.86093 19.0519 8.39453 18.4766 8.39453C17.9012 8.39453 17.4349 8.86087 17.4349 9.4362C17.1472 9.4362 16.9141 9.66934 16.9141 9.95703C16.9141 10.2447 17.1472 10.4779 17.4349 10.4779C17.6057 10.4779 19.3474 10.4779 19.5182 10.4779C19.8059 10.4779 20.039 10.2447 20.039 9.95703C20.039 9.66934 19.8059 9.4362 19.5183 9.4362Z" fill="#6DA544"/>
</svg>
