<svg width="30" height="20" viewBox="0 0 30 20" fill="none" xmlns="http://www.w3.org/2000/svg">
<path d="M30 0H0V20H30V0Z" fill="#F0F0F0"/>
<path d="M9.99977 0H0V20H9.99977V0Z" fill="#338AF3"/>
<path d="M29.9998 0H20V20H29.9998V0Z" fill="#338AF3"/>
<path d="M17.8183 11.801L15.9953 9.97802L17.7306 8.24273L17.652 7.32622L17.1552 6.82935L15.001 8.98358L12.8467 6.82935L12.3499 7.32622L12.2713 8.24273L14.0066 9.97802L12.1836 11.801L13.1779 12.7953L15.001 10.9723L16.824 12.7953L17.8183 11.801Z" fill="#ACABB1"/>
<path d="M17.6516 7.32629L16.6573 8.32068C17.0814 8.74483 17.3437 9.33076 17.3437 9.97798C17.3437 11.2724 16.2944 12.3218 14.9999 12.3218C13.7055 12.3218 12.6561 11.2724 12.6561 9.97798C12.6561 9.33082 12.9185 8.74489 13.3426 8.32068L12.3482 7.32629C11.6696 8.00492 11.25 8.94241 11.25 9.97798C11.25 12.049 12.9289 13.7279 15 13.7279C17.071 13.7279 18.75 12.049 18.75 9.97798C18.75 8.94241 18.3302 8.00492 17.6516 7.32629Z" fill="#6DA544"/>
</svg>
