<svg width="30" height="20" viewBox="0 0 30 20" fill="none" xmlns="http://www.w3.org/2000/svg">
<path d="M30 0H0V20H30V0Z" fill="#F0F0F0"/>
<path d="M30 0H0V6.66665H30V0Z" fill="#338AF3"/>
<path d="M30 13.3334H0V20H30V13.3334Z" fill="#338AF3"/>
<path d="M11.9253 7.21741L12.1843 8.01459H13.0225L12.3444 8.50726L12.6034 9.30439L11.9253 8.81172L11.2472 9.30439L11.5063 8.50726L10.8281 8.01459H11.6663L11.9253 7.21741Z" fill="#338AF3"/>
<path d="M11.9253 10.6957L12.1843 11.4929H13.0225L12.3444 11.9855L12.6034 12.7827L11.9253 12.29L11.2472 12.7827L11.5063 11.9855L10.8281 11.4929H11.6663L11.9253 10.6957Z" fill="#338AF3"/>
<path d="M18.0738 7.21741L18.3328 8.01459H19.171L18.4928 8.50726L18.7518 9.30439L18.0738 8.81172L17.3957 9.30439L17.6547 8.50726L16.9766 8.01459H17.8147L18.0738 7.21741Z" fill="#338AF3"/>
<path d="M18.0738 10.6957L18.3328 11.4929H19.171L18.4928 11.9855L18.7518 12.7827L18.0738 12.29L17.3957 12.7827L17.6547 11.9855L16.9766 11.4929H17.8147L18.0738 10.6957Z" fill="#338AF3"/>
<path d="M14.9995 8.95654L15.2586 9.75373H16.0967L15.4186 10.2464L15.6776 11.0436L14.9995 10.5509L14.3214 11.0436L14.5804 10.2464L13.9023 9.75373H14.7405L14.9995 8.95654Z" fill="#338AF3"/>
</svg>
