<svg width="30" height="20" viewBox="0 0 30 20" fill="none" xmlns="http://www.w3.org/2000/svg">
<path d="M30 0H0V20H30V0Z" fill="#F0F0F0"/>
<path d="M30 0H0V6.66665H30V0Z" fill="#D80027"/>
<path d="M30 13.3334H0V20H30V13.3334Z" fill="#0052B4"/>
<path d="M17.6064 6.95656H15.8672L16.1571 4.78257L17.3165 3.91296L18.4759 4.78257V6.52173L17.6064 6.95656Z" fill="#338AF3"/>
<path d="M12.393 6.95656H14.1321L13.8422 4.78257L12.6828 3.91296L11.5234 4.78257V6.52173L12.393 6.95656Z" fill="#338AF3"/>
<path d="M16.1587 6.95656H13.8398V4.78257L14.9993 3.91296L16.1587 4.78257V6.95656Z" fill="#0052B4"/>
<path d="M11.5234 6.52173V11.3044C11.5234 12.4433 12.0736 13.456 12.922 14.0909L13.5306 13.9386L14.2987 14.7113C14.5258 14.7581 14.7609 14.7827 15.0016 14.7827C15.2411 14.7827 15.4749 14.7584 15.7009 14.7121L16.5777 13.9821L17.0813 14.0896C17.9294 13.4547 18.4798 12.443 18.4798 11.3045V6.52179L11.5234 6.52173Z" fill="#F0F0F0"/>
<path d="M12.9147 6.52185H11.5234V7.91319H12.9147V6.52185Z" fill="#D80027"/>
<path d="M15.696 6.52185H14.3047V7.91319H15.696V6.52185Z" fill="#D80027"/>
<path d="M18.4772 6.52185H17.0859V7.91319H18.4772V6.52185Z" fill="#D80027"/>
<path d="M14.3054 7.91296H12.9141V9.3043H14.3054V7.91296Z" fill="#D80027"/>
<path d="M17.0866 7.91296H15.6953V9.3043H17.0866V7.91296Z" fill="#D80027"/>
<path d="M12.9147 9.30408H11.5234V10.6954H12.9147V9.30408Z" fill="#D80027"/>
<path d="M14.3054 10.6952H12.9141V12.0865H14.3054V10.6952Z" fill="#D80027"/>
<path d="M15.696 9.30408H14.3047V10.6954H15.696V9.30408Z" fill="#D80027"/>
<path d="M18.4772 9.30408H17.0859V10.6954H18.4772V9.30408Z" fill="#D80027"/>
<path d="M17.0866 10.6952H15.6953V12.0865H17.0866V10.6952Z" fill="#D80027"/>
<path d="M15.696 12.087H14.3047V13.4784H15.696V12.087Z" fill="#D80027"/>
<path d="M12.9109 12.0868H11.6094C11.7288 12.604 11.9634 13.0773 12.2853 13.4781H12.9109V12.0868Z" fill="#D80027"/>
<path d="M17.0859 13.478H17.7115C18.0334 13.0771 18.2681 12.6038 18.3875 12.0867H17.0859V13.478Z" fill="#D80027"/>
<path d="M12.9141 13.478V14.0851C13.3187 14.3896 13.7916 14.608 14.3054 14.7127V13.478H12.9141Z" fill="#D80027"/>
<path d="M15.6953 13.478V14.7127C16.2091 14.608 16.682 14.3896 17.0866 14.0851V13.478H15.6953Z" fill="#D80027"/>
</svg>
