<svg width="30" height="20" viewBox="0 0 30 20" fill="none" xmlns="http://www.w3.org/2000/svg">
<path d="M30 0.000366211H0V20H30V0.000366211Z" fill="#A2001D"/>
<path d="M30 0V9.76703L0 10.0103V0H30Z" fill="#0052B4"/>
<path d="M18.4799 12.6089L15.0017 12.1741L11.5234 12.6089V7.39148H18.4799V12.6089Z" fill="#F0F0F0"/>
<path d="M15.0009 12.1744C15.9614 12.1744 16.7401 11.3958 16.7401 10.4352C16.7401 9.47471 15.9614 8.69604 15.0009 8.69604C14.0404 8.69604 13.2617 9.47471 13.2617 10.4352C13.2617 11.3958 14.0404 12.1744 15.0009 12.1744Z" fill="#0052B4"/>
<path d="M15.0023 11.3047C15.4826 11.3047 15.8719 10.9154 15.8719 10.4352C15.8719 9.95498 15.4826 9.56567 15.0023 9.56567C14.5221 9.56567 14.1328 9.95498 14.1328 10.4352C14.1328 10.9154 14.5221 11.3047 15.0023 11.3047Z" fill="#A2001D"/>
<path d="M13.6953 8.26099H16.304L14.9997 9.56535L13.6953 8.26099Z" fill="#6DA544"/>
<path d="M15.4359 9.13086H14.5664V11.7396H15.4359V9.13086Z" fill="#FFDA44"/>
<path d="M16.393 11.4784H13.6103L11.5234 12.6088H18.4799L16.393 11.4784Z" fill="#6DA544"/>
</svg>
