<svg width="30" height="20" viewBox="0 0 30 20" fill="none" xmlns="http://www.w3.org/2000/svg">
<path d="M30 0H0V20H30V0Z" fill="#F0F0F0"/>
<path d="M30 0H0V6.66665H30V0Z" fill="#FF9811"/>
<path d="M30 13.3334H0V20H30V13.3334Z" fill="#6DA544"/>
<path d="M15.0017 12.572C16.4222 12.572 17.5737 11.4205 17.5737 9.99994C17.5737 8.57942 16.4222 7.42786 15.0017 7.42786C13.5812 7.42786 12.4297 8.57942 12.4297 9.99994C12.4297 11.4205 13.5812 12.572 15.0017 12.572Z" fill="#0052B4"/>
<path d="M14.9981 11.6074C15.8859 11.6074 16.6055 10.8877 16.6055 9.99995C16.6055 9.11216 15.8859 8.39246 14.9981 8.39246C14.1103 8.39246 13.3906 9.11216 13.3906 9.99995C13.3906 10.8877 14.1103 11.6074 14.9981 11.6074Z" fill="#F0F0F0"/>
<path d="M14.9992 8.01636L15.4951 9.14109L16.7171 9.0082L15.991 10L16.7171 10.9919L15.4951 10.859L14.9992 11.9837L14.5032 10.859L13.2812 10.9919L14.0073 10L13.2812 9.0082L14.5032 9.14109L14.9992 8.01636Z" fill="#0052B4"/>
</svg>
