<svg width="30" height="20" viewBox="0 0 30 20" fill="none" xmlns="http://www.w3.org/2000/svg">
<path d="M30 0H0V20H30V0Z" fill="#F0F0F0"/>
<path d="M30 0H0V6.66665H30V0Z" fill="#A2001D"/>
<path d="M30 13.3334H0V20H30V13.3334Z" fill="black"/>
<path d="M12.8416 9.41814C12.8367 9.41814 12.8319 9.4185 12.827 9.41855V9.41814H11.1215C11.208 9.08403 11.5111 8.83624 11.8718 8.83624V7.67236C10.8023 7.67236 9.93221 8.5425 9.93221 9.61203V10.5624V10.5818H12.8271C12.8337 10.5818 12.8389 10.5818 12.8417 10.5818C12.9486 10.5818 13.0356 10.6689 13.0356 10.7758V11.1637H9.15625V12.3275H14.1994V10.7758C14.1994 10.0272 13.5903 9.41814 12.8416 9.41814Z" fill="#496E2D"/>
<path d="M15.7497 11.1639V7.67236H14.5859V12.3277H16.5256V11.1639H15.7497Z" fill="#496E2D"/>
<path d="M19.6296 11.1639V7.67236H18.4658V11.1639H18.0779V10.0001H16.9141V12.3277H20.4055V11.1639H19.6296Z" fill="#496E2D"/>
</svg>
