<svg width="30" height="20" viewBox="0 0 30 20" fill="none" xmlns="http://www.w3.org/2000/svg">
<path d="M30 0H0V20H30V0Z" fill="#F0F0F0"/>
<path d="M30 0H0V6.66665H30V0Z" fill="#6DA544"/>
<path d="M30 13.3334H0V20H30V13.3334Z" fill="#D80027"/>
<path d="M17.5977 7.91296H16.551C16.5597 8.02799 16.5646 8.14406 16.5646 8.26078C16.5646 9.03465 16.3712 9.78484 16.0339 10.3188C15.9299 10.4835 15.7551 10.716 15.5211 10.8728V7.91296H14.4776V10.8728C14.2435 10.716 14.0687 10.4834 13.9647 10.3188C13.6274 9.78478 13.4341 9.03465 13.4341 8.26078C13.4341 8.14406 13.439 8.02793 13.4477 7.91296H12.401C12.3943 8.0274 12.3906 8.14336 12.3906 8.26078C12.3907 10.4064 13.5365 12.087 14.9994 12.087C16.4622 12.087 17.6081 10.4064 17.6081 8.26078C17.608 8.14336 17.6044 8.0274 17.5977 7.91296Z" fill="#D80027"/>
<path d="M3.91373 5.79724H2.60938V7.22819H3.91373V5.79724Z" fill="#F0F0F0"/>
<path d="M1.30436 5.79724H0V7.22819H1.30436V5.79724Z" fill="#F0F0F0"/>
<path d="M6.52311 5.79724H5.21875V7.22819H6.52311V5.79724Z" fill="#F0F0F0"/>
<path d="M9.13248 5.79724H7.82812V7.22819H9.13248V5.79724Z" fill="#F0F0F0"/>
<path d="M11.7419 5.79724H10.4375V7.22819H11.7419V5.79724Z" fill="#F0F0F0"/>
<path d="M14.3473 5.79724H13.043V7.22819H14.3473V5.79724Z" fill="#F0F0F0"/>
<path d="M16.9567 5.79724H15.6523V7.22819H16.9567V5.79724Z" fill="#F0F0F0"/>
<path d="M19.5661 5.79724H18.2617V7.22819H19.5661V5.79724Z" fill="#F0F0F0"/>
<path d="M22.1715 5.79724H20.8672V7.22819H22.1715V5.79724Z" fill="#F0F0F0"/>
<path d="M24.7809 5.79724H23.4766V7.22819H24.7809V5.79724Z" fill="#F0F0F0"/>
<path d="M27.3903 5.79724H26.0859V7.22819H27.3903V5.79724Z" fill="#F0F0F0"/>
<path d="M29.9997 5.79724H28.6953V7.22819H29.9997V5.79724Z" fill="#F0F0F0"/>
<path d="M3.91373 12.7065H2.60938V14.2027H3.91373V12.7065Z" fill="#F0F0F0"/>
<path d="M1.30436 12.7065H0V14.2027H1.30436V12.7065Z" fill="#F0F0F0"/>
<path d="M6.52311 12.7065H5.21875V14.2027H6.52311V12.7065Z" fill="#F0F0F0"/>
<path d="M9.13248 12.7065H7.82812V14.2027H9.13248V12.7065Z" fill="#F0F0F0"/>
<path d="M11.7419 12.7065H10.4375V14.2027H11.7419V12.7065Z" fill="#F0F0F0"/>
<path d="M14.3473 12.7065H13.043V14.2027H14.3473V12.7065Z" fill="#F0F0F0"/>
<path d="M16.9567 12.7065H15.6523V14.2027H16.9567V12.7065Z" fill="#F0F0F0"/>
<path d="M19.5661 12.7065H18.2617V14.2027H19.5661V12.7065Z" fill="#F0F0F0"/>
<path d="M22.1715 12.7065H20.8672V14.2027H22.1715V12.7065Z" fill="#F0F0F0"/>
<path d="M24.7809 12.7065H23.4766V14.2027H24.7809V12.7065Z" fill="#F0F0F0"/>
<path d="M27.3903 12.7065H26.0859V14.2027H27.3903V12.7065Z" fill="#F0F0F0"/>
<path d="M29.9997 12.7065H28.6953V14.2027H29.9997V12.7065Z" fill="#F0F0F0"/>
</svg>
