<svg width="30" height="20" viewBox="0 0 30 20" fill="none" xmlns="http://www.w3.org/2000/svg">
<path d="M30 0.000366211H0V19.9997H30V0.000366211Z" fill="#0052B4"/>
<path d="M30 0.000366211H0V5.00053H30V0.000366211Z" fill="#FFDA44"/>
<path d="M30 4.99988H0V10H30V4.99988Z" fill="#F0F0F0"/>
<path d="M30 10H0V15.0002H30V10Z" fill="#D80027"/>
<path d="M15 10.0004L0 20V0L15 10.0004Z" fill="#6DA544"/>
<path d="M4.02305 9.99999C4.02305 8.54307 5.04703 7.32591 6.41437 7.02732C6.2042 6.98139 5.98617 6.95654 5.76223 6.95654C4.08129 6.95654 2.71875 8.31913 2.71875 9.99999C2.71875 11.6808 4.08135 13.0434 5.76223 13.0434C5.98617 13.0434 6.2042 13.0185 6.41437 12.9727C5.04697 12.6741 4.02305 11.4569 4.02305 9.99999Z" fill="#F0F0F0"/>
<path d="M6.38109 7.39136L6.54293 7.88958H7.06676L6.64301 8.19754L6.80484 8.6957L6.38109 8.38779L5.95723 8.6957L6.11918 8.19754L5.69531 7.88958H6.21914L6.38109 7.39136Z" fill="#F0F0F0"/>
<path d="M6.38109 8.69568L6.54293 9.1939H7.06676L6.64301 9.5018L6.80484 10L6.38109 9.69211L5.95723 10L6.11918 9.5018L5.69531 9.1939H6.21914L6.38109 8.69568Z" fill="#F0F0F0"/>
<path d="M6.38109 10L6.54293 10.4982H7.06676L6.64301 10.8061L6.80484 11.3043L6.38109 10.9964L5.95723 11.3043L6.11918 10.8061L5.69531 10.4982H6.21914L6.38109 10Z" fill="#F0F0F0"/>
<path d="M6.38109 11.3043L6.54293 11.8025H7.06676L6.64301 12.1104L6.80484 12.6087L6.38109 12.3008L5.95723 12.6087L6.11918 12.1104L5.69531 11.8025H6.21914L6.38109 11.3043Z" fill="#F0F0F0"/>
</svg>
