<svg width="30" height="20" viewBox="0 0 30 20" fill="none" xmlns="http://www.w3.org/2000/svg">
<path d="M30 0H0V20H30V0Z" fill="#F0F0F0"/>
<path d="M30 0H0V6.66665H30V0Z" fill="#0052B4"/>
<path d="M30 13.3334H0V20H30V13.3334Z" fill="#0052B4"/>
<path d="M13.3906 10.3478L14.9971 7.56519L16.6037 10.3478H13.3906Z" fill="#FFDA44"/>
<path d="M17.0878 11.2666L15.0009 12.3102L12.9141 11.2666V9.87537H17.0878V11.2666Z" fill="#6DA544"/>
<path d="M16.9688 7.68457L16.231 8.4224C16.5457 8.73717 16.7404 9.17189 16.7404 9.65219C16.7404 10.6127 15.9617 11.3913 15.0013 11.3913C14.0408 11.3913 13.2622 10.6126 13.2622 9.65219C13.2622 9.172 13.4569 8.73717 13.7716 8.4224L13.0338 7.68457C12.5302 8.18814 12.2188 8.88378 12.2188 9.65213C12.2188 11.189 13.4645 12.4348 15.0013 12.4348C16.5381 12.4348 17.7839 11.189 17.7839 9.65213C17.7839 8.88372 17.4724 8.18802 16.9688 7.68457Z" fill="#FFDA44"/>
</svg>
