<svg width="30" height="20" viewBox="0 0 30 20" fill="none" xmlns="http://www.w3.org/2000/svg">
<path d="M30 0H0V20H30V0Z" fill="#FFDA44"/>
<path d="M30 0H0V5.30731H30V0Z" fill="black"/>
<path d="M30 14.6927H0V19.9994H30V14.6927Z" fill="#0052B4"/>
<path d="M30 6.63715H0V13.3636H30V6.63715Z" fill="#A2001D"/>
<path d="M21.5201 9.5647H8.47656V10.4342H21.5201V9.5647Z" fill="#FFDA44"/>
<path d="M19.7842 7.82605H10.2188V8.69557H19.7842V7.82605Z" fill="#FFDA44"/>
<path d="M19.8441 9.99967C19.8441 9.99967 17.608 12.6084 14.9993 12.6084C12.3906 12.6084 12.3906 9.99967 12.3906 9.99967C12.3906 9.99967 12.3906 7.39099 14.9993 7.39099C17.608 7.39099 19.8441 9.99967 19.8441 9.99967Z" fill="#F0F0F0"/>
<path d="M15.001 12.6084C12.3923 12.6084 10.1562 9.99967 10.1562 9.99967C10.1562 9.99967 12.3923 7.39099 15.001 7.39099" fill="black"/>
<path d="M14.1273 9.13037H13.2578V10.8695H14.1273V9.13037Z" fill="#F0F0F0"/>
<path d="M16.7367 9.13037H15.8672V10.8695H16.7367V9.13037Z" fill="black"/>
<path d="M8.47891 10.8692C8.95913 10.8692 9.34844 10.4799 9.34844 9.99965C9.34844 9.51942 8.95913 9.13013 8.47891 9.13013C7.99868 9.13013 7.60938 9.51942 7.60938 9.99965C7.60938 10.4799 7.99868 10.8692 8.47891 10.8692Z" fill="#0052B4"/>
<path d="M21.5219 10.8692C22.0021 10.8692 22.3914 10.4799 22.3914 9.99965C22.3914 9.51942 22.0021 9.13013 21.5219 9.13013C21.0416 9.13013 20.6523 9.51942 20.6523 9.99965C20.6523 10.4799 21.0416 10.8692 21.5219 10.8692Z" fill="#0052B4"/>
</svg>
